<svg width="200" height="44" viewBox="0 0 200 44" fill="none" xmlns="http://www.w3.org/2000/svg">
<rect x="0.5" y="0.5" width="199" height="43" rx="21.5" stroke="#665F55"/>
<path d="M89.0767 20.2898H86.9517C86.8911 19.9413 86.7794 19.6326 86.6165 19.3636C86.4536 19.0909 86.2509 18.8598 86.0085 18.6705C85.7661 18.4811 85.4896 18.339 85.179 18.2443C84.8722 18.1458 84.5407 18.0966 84.1847 18.0966C83.5521 18.0966 82.9915 18.2557 82.5028 18.5739C82.0142 18.8883 81.6316 19.3504 81.3551 19.9602C81.0786 20.5663 80.9403 21.3068 80.9403 22.1818C80.9403 23.072 81.0786 23.822 81.3551 24.4318C81.6354 25.0379 82.018 25.4962 82.5028 25.8068C82.9915 26.1136 83.5502 26.267 84.179 26.267C84.5275 26.267 84.8532 26.2216 85.1562 26.1307C85.4631 26.036 85.7377 25.8977 85.9801 25.7159C86.2263 25.5341 86.4328 25.3106 86.5994 25.0455C86.7699 24.7803 86.8873 24.4773 86.9517 24.1364L89.0767 24.1477C88.9972 24.7008 88.8248 25.2197 88.5597 25.7045C88.2983 26.1894 87.9555 26.6174 87.5312 26.9886C87.107 27.3561 86.6108 27.6439 86.0426 27.8523C85.4744 28.0568 84.8438 28.1591 84.1506 28.1591C83.1278 28.1591 82.215 27.9223 81.4119 27.4489C80.6089 26.9754 79.9763 26.2917 79.5142 25.3977C79.0521 24.5038 78.821 23.4318 78.821 22.1818C78.821 20.928 79.054 19.8561 79.5199 18.9659C79.9858 18.072 80.6203 17.3883 81.4233 16.9148C82.2263 16.4413 83.1354 16.2045 84.1506 16.2045C84.7983 16.2045 85.4006 16.2955 85.9574 16.4773C86.5142 16.6591 87.0104 16.9261 87.446 17.2784C87.8816 17.6269 88.2396 18.0549 88.5199 18.5625C88.804 19.0663 88.9896 19.642 89.0767 20.2898ZM92.973 16.3636V28H90.9162V16.3636H92.973ZM98.8949 28.1705C98.0426 28.1705 97.304 27.983 96.679 27.608C96.054 27.233 95.5691 26.7083 95.2244 26.0341C94.8835 25.3598 94.7131 24.572 94.7131 23.6705C94.7131 22.7689 94.8835 21.9792 95.2244 21.3011C95.5691 20.6231 96.054 20.0966 96.679 19.7216C97.304 19.3466 98.0426 19.1591 98.8949 19.1591C99.7472 19.1591 100.486 19.3466 101.111 19.7216C101.736 20.0966 102.219 20.6231 102.56 21.3011C102.904 21.9792 103.077 22.7689 103.077 23.6705C103.077 24.572 102.904 25.3598 102.56 26.0341C102.219 26.7083 101.736 27.233 101.111 27.608C100.486 27.983 99.7472 28.1705 98.8949 28.1705ZM98.9062 26.5227C99.3684 26.5227 99.7547 26.3958 100.065 26.142C100.376 25.8845 100.607 25.5398 100.759 25.108C100.914 24.6761 100.991 24.1951 100.991 23.6648C100.991 23.1307 100.914 22.6477 100.759 22.2159C100.607 21.7803 100.376 21.4337 100.065 21.1761C99.7547 20.9186 99.3684 20.7898 98.9062 20.7898C98.4328 20.7898 98.0388 20.9186 97.7244 21.1761C97.4138 21.4337 97.1809 21.7803 97.0256 22.2159C96.8741 22.6477 96.7983 23.1307 96.7983 23.6648C96.7983 24.1951 96.8741 24.6761 97.0256 25.108C97.1809 25.5398 97.4138 25.8845 97.7244 26.142C98.0388 26.3958 98.4328 26.5227 98.9062 26.5227ZM111.72 21.5795L109.845 21.7841C109.792 21.5947 109.699 21.4167 109.567 21.25C109.438 21.0833 109.264 20.9489 109.044 20.8466C108.824 20.7443 108.555 20.6932 108.237 20.6932C107.809 20.6932 107.449 20.786 107.158 20.9716C106.87 21.1572 106.728 21.3977 106.732 21.6932C106.728 21.947 106.821 22.1534 107.01 22.3125C107.203 22.4716 107.521 22.6023 107.964 22.7045L109.453 23.0227C110.279 23.2008 110.893 23.483 111.294 23.8693C111.699 24.2557 111.904 24.7614 111.908 25.3864C111.904 25.9356 111.743 26.4205 111.425 26.8409C111.11 27.2576 110.673 27.5833 110.112 27.8182C109.552 28.053 108.908 28.1705 108.18 28.1705C107.112 28.1705 106.252 27.947 105.601 27.5C104.949 27.0492 104.561 26.4223 104.436 25.6193L106.442 25.4261C106.533 25.8201 106.726 26.1174 107.021 26.3182C107.317 26.5189 107.701 26.6193 108.175 26.6193C108.663 26.6193 109.055 26.5189 109.351 26.3182C109.65 26.1174 109.8 25.8693 109.8 25.5739C109.8 25.3239 109.703 25.1174 109.51 24.9545C109.321 24.7917 109.025 24.6667 108.624 24.5795L107.135 24.267C106.298 24.0928 105.679 23.7992 105.277 23.3864C104.875 22.9697 104.677 22.4432 104.68 21.8068C104.677 21.2689 104.822 20.803 105.118 20.4091C105.417 20.0114 105.832 19.7045 106.362 19.4886C106.896 19.2689 107.512 19.1591 108.209 19.1591C109.232 19.1591 110.036 19.3769 110.624 19.8125C111.214 20.2481 111.58 20.8371 111.72 21.5795ZM117.467 28.1705C116.592 28.1705 115.837 27.9886 115.2 27.625C114.568 27.2576 114.081 26.7386 113.74 26.0682C113.399 25.3939 113.229 24.6004 113.229 23.6875C113.229 22.7898 113.399 22.0019 113.74 21.3239C114.085 20.642 114.566 20.1117 115.183 19.733C115.801 19.3504 116.526 19.1591 117.359 19.1591C117.897 19.1591 118.405 19.2462 118.882 19.4205C119.363 19.5909 119.787 19.8561 120.155 20.2159C120.526 20.5758 120.818 21.0341 121.03 21.5909C121.242 22.1439 121.348 22.803 121.348 23.5682V24.1989H114.195V22.8125H119.376C119.373 22.4186 119.287 22.0682 119.121 21.7614C118.954 21.4508 118.721 21.2064 118.422 21.0284C118.126 20.8504 117.782 20.7614 117.388 20.7614C116.967 20.7614 116.598 20.8636 116.28 21.0682C115.962 21.2689 115.714 21.5341 115.536 21.8636C115.361 22.1894 115.272 22.5473 115.268 22.9375V24.1477C115.268 24.6553 115.361 25.0909 115.547 25.4545C115.732 25.8144 115.992 26.0909 116.325 26.2841C116.659 26.4735 117.049 26.5682 117.496 26.5682C117.795 26.5682 118.066 26.5265 118.308 26.4432C118.551 26.3561 118.761 26.2292 118.939 26.0625C119.117 25.8958 119.251 25.6894 119.342 25.4432L121.263 25.6591C121.142 26.1667 120.911 26.6098 120.57 26.9886C120.232 27.3636 119.801 27.6553 119.274 27.8636C118.748 28.0682 118.145 28.1705 117.467 28.1705Z" fill="#403F3D"/>
</svg>
